<?xml version="1.0" encoding="iso-8859-1"?>
<!-- Generator: Adobe Illustrator 18.0.0, SVG Export Plug-In . SVG Version: 6.00 Build 0)  -->
<!DOCTYPE svg PUBLIC "-//W3C//DTD SVG 1.1//EN" "http://www.w3.org/Graphics/SVG/1.1/DTD/svg11.dtd">
<svg version="1.1" id="Capa_1" xmlns="http://www.w3.org/2000/svg" xmlns:xlink="http://www.w3.org/1999/xlink" x="0px" y="0px"
	 viewBox="0 0 54 54" style="enable-background:new 0 0 54 54;" xml:space="preserve">
<path d="M54,27.069V25.12c0-0.596-0.179-1.076-0.531-1.426c-0.593-0.589-1.419-0.587-2.212-0.575l-24.006,0L6.447,1.824
	c-1.08-1.081-2.822-1.271-3.863-0.383L2.327,1.563L2.205,1.686c-1.1,1.101-1.101,3.343-0.009,4.435l16.6,17L3,23.12H2.744
	c-0.796,0-1.62-0.015-2.212,0.575C0.179,24.045,0,24.525,0,25.12v2c0,0.033,0.008,0.07,0.009,0.103l-0.004,0l0.023,0.217
	c0.01,0.115,0.015,0.228,0.036,0.348l0.146,1.405c0.046,12.978,12.39,23.928,26.998,23.928C41.845,53.121,54,42.13,54,29.12V27.069z
	 M9.16,39.52c-0.198,0.22-0.47,0.331-0.744,0.331c-0.238,0-0.477-0.085-0.668-0.257c-0.435-0.391-0.834-0.828-1.188-1.302
	c-0.331-0.441-0.241-1.068,0.202-1.399c0.443-0.332,1.069-0.24,1.4,0.202c0.275,0.368,0.586,0.709,0.924,1.013
	C9.496,38.477,9.529,39.109,9.16,39.52z M26.269,49.344c-0.034,0-0.068-0.002-0.103-0.005c-5.875-0.603-11.267-2.938-15.182-6.577
	c-0.405-0.376-0.428-1.009-0.052-1.413c0.376-0.404,1.01-0.426,1.413-0.052c3.599,3.345,8.58,5.494,14.025,6.052
	c0.549,0.057,0.949,0.548,0.893,1.097C27.209,48.961,26.775,49.344,26.269,49.344z M46,38.823c0,3.021-2.467,5.479-5.5,5.479
	S35,41.844,35,38.823v-2.639c-0.996,1.409-2.642,2.332-4.5,2.332c-3.033,0-5.5-2.458-5.5-5.479v-3.228c0-0.934-0.757-1.69-1.69-1.69
	H2.241c-0.086-0.2-0.154-0.411-0.196-0.617L2,27.068v-1.93c0.189-0.023,0.502-0.021,0.728-0.019l18.021,0l0.001,0H27v7.918
	c0,1.918,1.57,3.479,3.5,3.479s3.5-1.561,3.5-3.479v-2.479c0-0.815,0.673-1.479,1.5-1.479s1.5,0.664,1.5,1.479v8.265
	c0,1.918,1.57,3.479,3.5,3.479s3.5-1.561,3.5-3.479V25.12h7h0.272c0.225,0,0.54-0.006,0.728,0.018v1.982c0,0.314-0.1,0.673-0.241,1
	H47.69c-0.934,0-1.69,0.757-1.69,1.69V38.823z"/>
<g>
</g>
<g>
</g>
<g>
</g>
<g>
</g>
<g>
</g>
<g>
</g>
<g>
</g>
<g>
</g>
<g>
</g>
<g>
</g>
<g>
</g>
<g>
</g>
<g>
</g>
<g>
</g>
<g>
</g>
</svg>
