<svg id="svg" version="1.1" width="400" height="263.59143327841844" xmlns="http://www.w3.org/2000/svg" xmlns:xlink="http://www.w3.org/1999/xlink" style="display: block;"><g id="svgg"><path id="path0" d="M0.000 131.839 L 0.000 263.678 200.000 263.678 L 400.000 263.678 400.000 131.839 L 400.000 0.000 200.000 0.000 L 0.000 0.000 0.000 131.839 M81.637 47.419 C 81.281 58.126,81.152 91.681,81.464 92.265 C 82.145 93.537,84.496 93.482,84.763 92.188 C 84.827 91.880,84.924 80.666,84.978 67.268 C 85.075 43.605,85.092 42.896,85.584 42.529 C 86.033 42.194,87.640 42.200,87.977 42.537 C 88.036 42.596,88.199 49.750,88.339 58.435 C 88.624 76.125,88.999 87.636,89.370 90.139 C 89.705 92.401,90.750 93.456,91.707 92.498 C 92.098 92.108,92.138 63.174,91.765 51.074 C 91.509 42.761,91.521 42.563,92.316 42.311 C 92.710 42.186,94.622 42.584,94.671 42.802 C 94.676 42.827,94.796 46.882,94.937 51.813 C 96.010 89.434,96.192 92.344,97.499 92.841 C 100.221 93.876,100.301 92.682,99.395 64.601 C 98.590 39.689,98.499 42.189,100.214 42.189 C 101.684 42.189,101.542 40.930,102.842 65.524 C 103.215 72.570,104.056 84.526,104.698 91.892 C 105.419 100.155,104.492 102.804,99.607 106.442 C 95.804 109.273,94.710 111.293,95.035 114.884 C 95.133 115.960,95.320 119.593,95.451 122.956 C 95.582 126.319,95.811 132.215,95.961 136.058 C 96.318 145.236,96.717 154.626,97.047 161.635 C 97.193 164.753,97.429 170.567,97.571 174.555 C 98.236 193.265,98.794 204.629,99.171 207.117 C 100.283 214.461,96.871 219.686,90.962 219.686 C 84.068 219.686,82.229 215.429,83.259 201.846 C 83.660 196.551,84.063 186.373,84.397 173.105 C 84.539 167.449,84.771 158.550,84.911 153.329 C 85.429 134.099,85.680 122.341,85.688 116.977 C 85.697 110.150,85.757 110.295,81.067 105.880 C 75.942 101.056,75.522 99.864,75.764 90.837 C 75.989 82.452,77.242 63.447,78.596 47.858 C 79.048 42.663,79.025 42.753,79.976 42.494 C 81.749 42.013,81.810 42.193,81.637 47.419 M316.757 42.618 C 320.217 44.380,321.359 46.005,321.699 49.650 C 322.307 56.164,323.341 83.692,323.827 106.262 C 324.764 149.811,325.179 181.488,325.068 201.055 L 324.981 216.348 324.357 217.608 C 321.977 222.407,312.567 222.632,310.900 217.930 C 310.121 215.735,310.238 187.300,311.147 157.548 C 311.275 153.342,311.463 146.911,311.565 143.256 L 311.750 136.611 309.552 134.291 C 303.332 127.726,300.976 121.047,301.616 111.800 C 301.964 106.769,302.375 99.794,302.572 95.583 C 302.653 93.843,302.833 90.936,302.971 89.123 C 303.108 87.310,303.350 84.107,303.507 82.004 C 304.471 69.080,305.836 56.914,306.835 52.340 C 308.639 44.076,312.394 40.397,316.757 42.618 M210.283 48.502 C 223.301 50.106,233.228 53.302,244.298 59.453 C 253.857 64.765,264.696 74.659,271.747 84.509 C 284.673 102.566,290.173 127.046,286.203 148.846 C 285.006 155.421,283.827 159.629,281.401 165.985 C 272.401 189.572,250.133 209.959,226.104 216.611 C 225.234 216.852,224.225 217.151,223.863 217.274 C 221.711 218.007,215.627 219.131,210.283 219.782 C 206.546 220.237,196.558 220.302,193.276 219.892 C 166.749 216.582,145.983 204.605,131.390 184.198 C 103.337 144.967,113.322 89.396,153.197 62.838 C 155.760 61.131,156.856 60.455,159.657 58.858 C 160.759 58.230,165.560 55.868,167.831 54.837 C 174.357 51.876,184.728 49.282,193.144 48.505 C 194.885 48.344,196.546 48.171,196.836 48.120 C 197.903 47.932,207.984 48.219,210.283 48.502 M196.177 53.526 C 190.294 53.928,184.394 54.971,178.906 56.579 C 174.317 57.923,172.786 58.489,168.227 60.523 C 165.677 61.660,164.694 62.160,160.976 64.210 C 136.075 77.938,120.152 106.349,120.856 135.794 C 121.027 142.945,121.411 146.815,122.336 150.692 C 122.474 151.272,122.781 152.577,123.018 153.593 C 123.704 156.535,125.331 161.607,126.317 163.876 C 126.569 164.456,127.097 165.702,127.492 166.645 C 134.468 183.316,149.896 199.286,166.444 206.965 C 170.848 209.009,171.592 209.313,175.082 210.500 C 215.751 224.329,259.556 204.567,276.089 164.931 C 278.738 158.579,280.607 151.464,281.663 143.705 C 282.109 140.431,282.109 127.176,281.663 124.456 C 281.485 123.368,281.208 121.648,281.047 120.633 C 274.678 80.455,237.085 50.730,196.177 53.526 M211.206 76.177 C 258.460 84.738,276.637 141.937,242.866 175.804 C 216.009 202.737,170.733 197.102,151.015 164.371 C 143.177 151.359,140.585 133.941,144.389 119.842 C 144.624 118.972,144.907 117.904,145.019 117.469 C 151.996 90.208,182.751 71.021,211.206 76.177 M193.959 78.984 C 175.449 81.675,159.671 93.087,151.444 109.733 C 150.482 111.679,148.362 117.037,148.121 118.128 C 148.041 118.490,147.777 119.499,147.534 120.369 C 144.838 130.019,145.289 141.728,148.754 152.011 C 157.003 176.497,181.885 192.386,207.383 189.449 C 235.842 186.171,256.938 162.604,256.944 134.080 C 256.945 128.997,256.824 127.736,255.868 122.874 C 250.346 94.782,222.259 74.870,193.959 78.984 " stroke="none" fill="#f6f6f6" fill-rule="evenodd"></path><path id="path1" d="M79.976 42.494 C 79.025 42.753,79.048 42.663,78.596 47.858 C 77.242 63.447,75.989 82.452,75.764 90.837 C 75.522 99.864,75.942 101.056,81.067 105.880 C 85.757 110.295,85.697 110.150,85.688 116.977 C 85.680 122.341,85.429 134.099,84.911 153.329 C 84.771 158.550,84.539 167.449,84.397 173.105 C 84.063 186.373,83.660 196.551,83.259 201.846 C 82.229 215.429,84.068 219.686,90.962 219.686 C 96.871 219.686,100.283 214.461,99.171 207.117 C 98.794 204.629,98.236 193.265,97.571 174.555 C 97.429 170.567,97.193 164.753,97.047 161.635 C 96.717 154.626,96.318 145.236,95.961 136.058 C 95.811 132.215,95.582 126.319,95.451 122.956 C 95.320 119.593,95.133 115.960,95.035 114.884 C 94.710 111.293,95.804 109.273,99.607 106.442 C 104.492 102.804,105.419 100.155,104.698 91.892 C 104.056 84.526,103.215 72.570,102.842 65.524 C 101.542 40.930,101.684 42.189,100.214 42.189 C 98.683 42.189,98.681 42.201,98.910 49.440 C 99.024 53.065,99.243 59.888,99.395 64.601 C 100.301 92.682,100.221 93.876,97.499 92.841 C 96.192 92.344,96.010 89.434,94.937 51.813 C 94.796 46.882,94.676 42.827,94.671 42.802 C 94.622 42.584,92.710 42.186,92.316 42.311 C 91.521 42.563,91.509 42.761,91.765 51.074 C 92.138 63.174,92.098 92.108,91.707 92.498 C 90.750 93.456,89.705 92.401,89.370 90.139 C 88.999 87.636,88.624 76.125,88.339 58.435 C 88.199 49.750,88.036 42.596,87.977 42.537 C 87.640 42.200,86.033 42.194,85.584 42.529 C 85.092 42.896,85.075 43.605,84.978 67.268 C 84.924 80.666,84.827 91.880,84.763 92.188 C 84.496 93.482,82.145 93.537,81.464 92.265 C 81.152 91.681,81.281 58.126,81.637 47.419 C 81.810 42.193,81.749 42.013,79.976 42.494 M311.800 42.682 C 309.599 44.048,307.941 47.274,306.835 52.340 C 305.836 56.914,304.471 69.080,303.507 82.004 C 303.350 84.107,303.108 87.310,302.971 89.123 C 302.833 90.936,302.653 93.843,302.572 95.583 C 302.375 99.794,301.964 106.769,301.616 111.800 C 300.976 121.047,303.332 127.726,309.552 134.291 L 311.750 136.611 311.565 143.256 C 311.463 146.911,311.275 153.342,311.147 157.548 C 310.238 187.300,310.121 215.735,310.900 217.930 C 312.567 222.632,321.977 222.407,324.357 217.608 L 324.981 216.348 325.068 201.055 C 325.239 170.999,323.990 101.059,322.728 70.007 C 321.885 49.262,321.730 47.386,320.738 45.886 C 318.733 42.857,314.158 41.217,311.800 42.682 M196.836 48.120 C 196.546 48.171,194.885 48.344,193.144 48.505 C 184.728 49.282,174.357 51.876,167.831 54.837 C 165.560 55.868,160.759 58.230,159.657 58.858 C 156.856 60.455,155.760 61.131,153.197 62.838 C 113.322 89.396,103.337 144.967,131.390 184.198 C 145.983 204.605,166.749 216.582,193.276 219.892 C 196.558 220.302,206.546 220.237,210.283 219.782 C 215.627 219.131,221.711 218.007,223.863 217.274 C 224.225 217.151,225.234 216.852,226.104 216.611 C 250.133 209.959,272.401 189.572,281.401 165.985 C 283.827 159.629,285.006 155.421,286.203 148.846 C 288.378 136.904,287.643 123.207,284.137 110.349 C 278.570 89.934,262.728 69.695,244.298 59.453 C 230.829 51.969,217.631 48.378,202.637 48.118 C 199.736 48.068,197.126 48.069,196.836 48.120 M211.206 53.956 C 246.989 58.683,275.549 85.949,281.047 120.633 C 281.208 121.648,281.485 123.368,281.663 124.456 C 282.109 127.176,282.109 140.431,281.663 143.705 C 280.607 151.464,278.738 158.579,276.089 164.931 C 259.556 204.567,215.751 224.329,175.082 210.500 C 171.592 209.313,170.848 209.009,166.444 206.965 C 149.896 199.286,134.468 183.316,127.492 166.645 C 127.097 165.702,126.569 164.456,126.317 163.876 C 125.331 161.607,123.704 156.535,123.018 153.593 C 122.781 152.577,122.474 151.272,122.336 150.692 C 120.013 140.947,120.281 126.118,122.983 114.901 C 128.019 93.999,142.861 74.197,160.976 64.210 C 164.694 62.160,165.677 61.660,168.227 60.523 C 172.786 58.489,174.317 57.923,178.906 56.579 C 189.092 53.595,201.094 52.621,211.206 53.956 M195.122 75.675 C 172.032 78.053,150.513 96.003,145.019 117.469 C 144.907 117.904,144.624 118.972,144.389 119.842 C 138.957 139.977,146.305 163.986,162.162 177.912 C 198.562 209.878,255.024 187.830,259.863 139.761 C 263.572 102.922,232.190 71.858,195.122 75.675 M208.589 78.986 C 232.581 82.558,251.372 100.002,255.868 122.874 C 256.824 127.736,256.945 128.997,256.944 134.080 C 256.938 162.604,235.842 186.171,207.383 189.449 C 181.885 192.386,157.003 176.497,148.754 152.011 C 145.289 141.728,144.838 130.019,147.534 120.369 C 147.777 119.499,148.041 118.490,148.121 118.128 C 148.870 114.728,152.211 107.764,155.358 103.042 C 166.817 85.849,188.593 76.008,208.589 78.986 " stroke="none" fill="#dcddde" fill-rule="evenodd"></path></g></svg>