<svg id="svg" version="1.1" width="400" height="175.16843118383062" xmlns="http://www.w3.org/2000/svg" xmlns:xlink="http://www.w3.org/1999/xlink" style="display: block;"><g id="svgg"><path id="path0" d="M186.250 0.100 C 184.703 0.324,182.935 0.832,181.460 1.477 C 180.748 1.789,180.662 2.235,181.088 3.417 C 181.220 3.783,181.329 4.183,181.331 4.306 C 181.347 5.737,185.684 11.167,186.810 11.167 C 186.915 11.167,187.000 11.223,187.000 11.292 C 187.000 11.580,189.209 12.549,190.917 13.010 C 193.611 13.738,200.327 13.134,198.292 12.347 C 197.180 11.917,192.052 9.424,191.651 9.119 C 190.005 7.865,191.853 5.240,193.841 6.009 C 194.651 6.322,198.503 8.132,199.544 8.688 C 200.782 9.351,200.665 8.370,199.251 6.248 C 196.512 2.137,190.811 -0.559,186.250 0.100 M241.673 0.437 C 240.977 1.022,240.667 1.670,240.667 2.533 C 240.668 3.473,241.030 4.069,242.667 5.832 C 242.987 6.178,243.438 6.677,243.667 6.942 C 244.567 7.984,246.263 9.918,246.500 10.173 C 246.637 10.322,246.936 10.662,247.162 10.930 C 247.389 11.198,248.020 11.942,248.563 12.583 C 249.107 13.225,249.645 13.828,249.759 13.922 C 249.934 14.068,251.155 15.788,251.563 16.462 C 251.662 16.627,251.550 16.623,251.054 16.444 C 250.703 16.318,250.004 16.092,249.500 15.943 C 248.996 15.793,247.758 15.408,246.750 15.088 C 244.546 14.387,243.734 14.138,242.417 13.761 C 241.867 13.603,240.967 13.339,240.417 13.174 C 239.191 12.806,238.020 12.485,236.167 12.010 C 235.387 11.810,234.491 11.578,234.175 11.495 C 233.298 11.265,233.338 11.516,234.401 12.940 C 235.169 13.967,236.117 15.587,237.190 17.707 C 243.501 30.164,242.528 48.427,235.016 58.497 C 234.044 59.800,232.325 61.731,231.760 62.154 C 231.582 62.287,231.302 62.531,231.137 62.696 C 229.163 64.671,223.656 67.012,221.011 67.002 C 219.754 66.997,217.742 67.748,215.315 69.127 C 210.896 71.636,206.139 72.096,200.417 70.566 C 198.462 70.043,195.753 68.895,193.417 67.599 C 189.232 65.278,183.769 60.232,180.860 56.000 C 180.513 55.496,179.953 54.690,179.615 54.210 C 179.277 53.730,179.000 53.308,179.000 53.273 C 179.000 53.238,178.512 52.371,177.917 51.346 C 177.321 50.321,176.833 49.450,176.833 49.411 C 176.833 49.372,176.584 48.795,176.280 48.129 C 175.787 47.049,175.432 46.202,174.990 45.052 C 174.377 43.457,173.667 40.980,173.326 39.250 C 173.218 38.700,173.081 38.161,173.022 38.052 C 172.904 37.834,171.302 38.473,168.917 39.690 C 167.705 40.308,167.195 40.582,165.083 41.747 C 158.259 45.515,152.135 51.279,151.890 54.167 C 151.716 56.217,152.234 56.447,157.611 56.706 L 161.471 56.891 161.027 57.228 C 160.783 57.413,160.277 57.831,159.903 58.157 C 159.529 58.483,158.704 59.197,158.070 59.742 C 156.589 61.017,152.527 65.078,151.242 66.568 C 149.440 68.659,149.231 68.911,148.739 69.583 C 148.471 69.950,148.191 70.294,148.117 70.349 C 148.043 70.403,147.649 70.928,147.241 71.515 C 145.284 74.334,144.072 76.113,143.901 76.417 C 143.798 76.600,143.403 77.255,143.024 77.872 C 142.644 78.489,142.333 79.040,142.333 79.096 C 142.333 79.153,142.191 79.398,142.017 79.642 C 140.872 81.251,137.450 88.639,137.154 90.143 C 136.701 92.443,138.652 93.903,140.891 92.941 C 141.420 92.714,142.680 92.198,143.557 91.849 C 145.605 91.033,148.688 90.299,149.785 90.365 L 150.641 90.417 149.821 91.637 C 149.369 92.309,149.000 92.888,149.000 92.924 C 149.000 92.960,148.689 93.443,148.308 93.997 C 147.928 94.552,147.663 95.052,147.719 95.108 C 147.887 95.276,152.058 94.716,156.083 93.984 C 157.092 93.801,158.554 93.536,159.333 93.396 C 161.507 93.005,163.168 92.638,166.417 91.830 C 166.875 91.716,167.550 91.568,167.917 91.500 C 168.283 91.432,168.958 91.284,169.417 91.171 C 171.917 90.553,173.285 90.239,176.333 89.583 C 177.021 89.435,178.221 89.174,179.000 89.004 C 179.779 88.834,181.054 88.573,181.833 88.423 C 182.612 88.273,183.963 88.007,184.833 87.832 C 186.454 87.507,187.976 87.236,190.917 86.747 C 191.833 86.595,193.408 86.330,194.417 86.158 C 198.395 85.479,207.006 84.360,211.583 83.926 C 228.352 82.339,242.878 82.339,257.417 83.927 C 261.644 84.388,268.577 85.470,271.917 86.189 C 272.742 86.366,273.979 86.628,274.667 86.769 C 275.354 86.911,276.298 87.134,276.765 87.264 C 277.231 87.394,277.751 87.500,277.919 87.500 C 278.088 87.500,278.719 87.646,279.322 87.823 C 279.924 88.001,280.904 88.273,281.500 88.427 C 282.096 88.580,283.071 88.849,283.667 89.023 C 284.262 89.198,285.162 89.460,285.667 89.607 C 287.348 90.095,288.246 90.374,288.667 90.538 C 288.896 90.627,289.983 90.995,291.083 91.356 C 293.026 91.993,294.364 92.480,295.442 92.942 C 295.731 93.065,296.019 93.167,296.083 93.167 C 296.147 93.167,296.436 93.268,296.725 93.392 C 297.014 93.516,297.625 93.772,298.083 93.961 C 301.118 95.210,302.056 95.609,303.167 96.121 C 305.023 96.978,309.938 99.423,311.083 100.061 C 313.365 101.329,313.812 101.583,315.130 102.357 C 315.889 102.802,316.546 103.167,316.590 103.167 C 316.634 103.167,317.029 103.410,317.468 103.708 C 319.058 104.788,319.013 104.778,319.505 104.189 C 320.157 103.408,323.000 99.133,323.000 98.934 C 323.000 98.888,323.262 98.415,323.583 97.883 C 324.329 96.645,324.317 96.524,323.371 95.882 C 318.049 92.266,316.003 85.033,318.734 79.493 C 322.762 71.322,333.813 69.742,339.747 76.489 C 341.010 77.925,341.756 78.944,342.318 80.000 C 342.537 80.412,342.818 80.868,342.941 81.013 C 343.065 81.158,343.167 81.353,343.167 81.446 C 343.167 81.730,344.264 82.765,344.772 82.960 C 345.035 83.061,345.925 83.379,346.750 83.667 C 348.870 84.407,349.999 84.823,350.631 85.097 C 350.932 85.227,351.285 85.333,351.417 85.333 C 351.548 85.333,351.902 85.437,352.203 85.564 C 353.122 85.952,354.491 86.431,356.500 87.068 C 357.554 87.403,358.679 87.777,359.000 87.900 C 360.926 88.638,361.453 88.749,363.000 88.737 C 364.844 88.724,364.491 88.882,369.306 85.912 C 369.459 85.818,370.296 85.276,371.167 84.707 C 372.037 84.138,373.364 83.277,374.114 82.794 C 375.610 81.832,375.687 81.675,375.133 80.718 C 374.810 80.161,373.565 78.395,373.334 78.167 C 372.035 76.882,369.843 70.779,369.085 66.333 C 368.937 65.462,368.667 64.188,368.485 63.500 C 368.303 62.813,368.036 61.800,367.891 61.250 C 367.341 59.167,366.641 56.783,366.250 55.667 C 366.138 55.346,365.916 54.708,365.756 54.250 C 365.596 53.792,365.404 53.192,365.330 52.917 C 365.256 52.642,365.033 52.004,364.835 51.500 C 364.637 50.996,364.412 50.396,364.336 50.167 C 363.563 47.852,359.733 40.377,358.887 39.530 C 358.766 39.409,358.667 39.240,358.667 39.156 C 358.667 38.282,356.338 37.736,355.163 38.335 C 354.316 38.767,353.198 41.271,352.001 45.417 C 351.728 46.361,350.551 49.671,350.453 49.769 C 350.289 49.933,350.042 49.695,349.481 48.829 C 349.186 48.373,348.881 48.000,348.805 48.000 C 348.729 48.000,348.667 47.920,348.667 47.822 C 348.667 47.628,347.827 46.451,347.625 46.361 C 347.556 46.331,347.500 46.238,347.500 46.155 C 347.500 46.072,347.392 45.872,347.261 45.710 C 347.129 45.549,345.878 43.917,344.481 42.083 C 342.290 39.209,340.466 36.914,339.117 35.333 C 338.921 35.104,338.354 34.429,337.856 33.833 C 337.359 33.237,336.794 32.590,336.601 32.396 C 336.408 32.201,335.800 31.529,335.250 30.903 C 331.939 27.136,327.693 22.890,323.930 19.583 C 323.304 19.033,322.670 18.465,322.521 18.321 C 320.111 15.983,318.434 15.278,317.104 16.044 C 315.750 16.825,315.739 16.889,315.986 22.902 C 316.106 25.808,316.168 28.221,316.125 28.264 C 316.046 28.342,314.477 26.965,313.341 25.821 C 312.344 24.817,306.865 20.004,305.083 18.567 C 304.533 18.123,304.008 17.675,303.917 17.570 C 303.192 16.742,294.392 10.370,291.969 8.918 C 287.203 6.064,286.062 5.439,283.750 4.412 C 283.200 4.168,282.450 3.833,282.083 3.667 C 279.942 2.700,279.385 2.628,278.207 3.163 C 276.947 3.735,276.736 5.810,277.725 7.902 C 278.032 8.552,278.714 10.096,279.241 11.333 C 279.767 12.571,280.298 13.808,280.420 14.083 C 280.542 14.358,280.764 14.883,280.913 15.250 C 281.062 15.617,281.329 16.217,281.505 16.583 C 281.915 17.435,281.662 17.532,280.538 16.955 C 279.109 16.221,274.883 13.975,272.500 12.683 C 269.045 10.810,262.027 7.421,258.500 5.924 C 257.262 5.399,256.006 4.863,255.708 4.734 C 255.410 4.605,254.923 4.398,254.625 4.273 C 254.327 4.148,253.708 3.888,253.250 3.696 C 252.792 3.504,251.817 3.111,251.083 2.823 C 250.350 2.535,249.525 2.202,249.250 2.083 C 248.975 1.965,248.338 1.702,247.833 1.500 C 247.329 1.298,246.767 1.068,246.583 0.990 C 243.790 -0.200,242.590 -0.335,241.673 0.437 M328.250 76.483 C 323.627 77.382,320.587 82.453,321.830 87.196 C 322.754 90.725,324.965 92.779,329.750 94.554 C 332.955 95.743,333.423 96.160,333.207 97.633 C 332.982 99.165,331.847 99.556,329.710 98.837 L 328.111 98.299 327.836 98.664 C 327.684 98.864,327.417 99.303,327.241 99.639 C 327.065 99.975,326.696 100.589,326.419 101.003 C 326.143 101.417,325.771 102.017,325.593 102.337 C 325.415 102.656,324.740 103.648,324.093 104.543 C 322.310 107.007,322.354 106.910,322.840 107.314 C 323.065 107.502,323.317 107.658,323.400 107.661 C 323.482 107.664,323.869 107.929,324.261 108.250 C 324.652 108.571,325.048 108.833,325.139 108.833 C 325.231 108.833,325.331 108.891,325.361 108.961 C 325.392 109.032,326.310 109.758,327.403 110.575 C 328.495 111.393,329.506 112.197,329.648 112.364 C 329.791 112.530,329.959 112.667,330.021 112.667 C 330.083 112.667,330.416 112.910,330.761 113.208 C 331.580 113.917,332.821 114.979,333.431 115.493 C 336.074 117.723,340.308 121.855,343.170 125.000 C 344.213 126.146,345.109 127.121,345.162 127.167 C 345.215 127.212,345.849 127.962,346.571 128.833 C 347.294 129.704,347.948 130.442,348.026 130.472 C 348.103 130.503,348.167 130.630,348.167 130.756 C 348.167 130.881,348.266 131.043,348.387 131.117 C 348.508 131.190,348.938 131.700,349.344 132.250 C 349.750 132.800,350.125 133.287,350.177 133.333 C 350.230 133.379,350.601 133.867,351.001 134.417 C 351.402 134.967,351.790 135.442,351.865 135.472 C 351.939 135.503,352.000 135.625,352.000 135.743 C 352.000 135.862,352.111 136.051,352.246 136.164 C 352.499 136.374,353.010 137.107,355.323 140.583 C 356.055 141.683,356.731 142.674,356.827 142.785 C 356.922 142.895,357.000 143.024,357.000 143.069 C 357.000 143.115,357.539 144.000,358.199 145.035 C 358.858 146.070,359.404 146.932,359.412 146.950 C 359.421 146.968,359.725 146.918,360.089 146.838 C 360.452 146.759,361.387 146.566,362.167 146.410 C 364.950 145.853,369.112 144.735,372.417 143.657 C 372.967 143.478,374.204 143.077,375.167 142.765 C 377.527 142.002,378.734 141.551,382.583 139.992 C 386.909 138.241,394.665 134.150,394.972 133.458 C 395.003 133.390,395.102 133.333,395.192 133.333 C 395.400 133.333,396.461 132.550,396.982 132.011 C 397.452 131.525,397.262 131.412,396.385 131.655 C 391.985 132.877,388.638 126.898,391.970 123.769 L 392.481 123.289 391.517 122.019 C 390.526 120.715,387.825 116.779,387.614 116.333 C 387.549 116.196,387.351 115.858,387.173 115.583 C 386.107 113.934,383.771 108.799,383.003 106.417 C 382.291 104.207,382.208 103.913,381.937 102.667 C 381.323 99.843,381.137 98.646,380.996 96.603 C 380.795 93.693,380.381 91.674,379.651 90.037 C 379.476 89.645,379.333 89.251,379.333 89.162 C 379.333 88.290,377.475 85.356,377.192 85.780 C 377.132 85.868,376.971 85.995,376.833 86.060 C 376.344 86.294,375.540 86.809,372.781 88.655 C 367.525 92.172,366.020 92.749,362.167 92.726 C 359.246 92.709,358.915 92.633,354.667 90.996 C 354.162 90.802,353.113 90.429,352.333 90.167 C 350.689 89.614,350.006 89.377,349.083 89.036 C 348.717 88.901,348.192 88.731,347.917 88.659 C 347.642 88.587,346.899 88.334,346.267 88.097 C 345.010 87.626,344.434 87.551,344.541 87.873 C 344.604 88.062,344.008 88.667,343.759 88.667 C 343.701 88.667,343.444 88.821,343.188 89.010 C 341.724 90.093,340.333 89.031,340.333 86.830 C 340.333 84.974,339.375 82.243,338.312 81.073 C 338.141 80.883,338.000 80.655,338.000 80.566 C 338.000 80.110,335.179 77.715,333.916 77.099 C 332.505 76.411,330.014 76.140,328.250 76.483 M359.994 110.264 C 364.514 111.606,364.576 117.538,360.083 118.952 C 357.938 119.627,355.412 118.295,354.624 116.075 C 353.452 112.768,356.676 109.278,359.994 110.264 M252.667 141.347 C 251.521 141.418,249.221 141.553,247.556 141.645 C 242.763 141.912,234.144 142.840,228.583 143.688 C 224.351 144.334,220.690 144.949,218.667 145.355 C 217.796 145.529,216.483 145.790,215.750 145.934 C 215.017 146.078,213.742 146.343,212.917 146.524 C 212.092 146.705,210.892 146.967,210.250 147.106 C 209.608 147.246,208.702 147.466,208.235 147.597 C 207.769 147.727,207.249 147.833,207.081 147.833 C 206.912 147.833,206.281 147.979,205.678 148.157 C 205.076 148.335,204.133 148.591,203.583 148.727 C 201.647 149.206,200.406 149.531,199.333 149.838 C 198.737 150.009,197.838 150.264,197.333 150.404 C 196.022 150.770,191.748 152.057,190.083 152.588 C 189.117 152.896,185.557 153.974,184.583 154.254 C 184.125 154.385,183.225 154.648,182.583 154.837 C 181.942 155.026,181.023 155.291,180.542 155.424 C 180.060 155.557,179.273 155.776,178.792 155.910 C 178.310 156.044,177.317 156.309,176.583 156.500 C 175.850 156.691,174.912 156.947,174.500 157.069 C 174.088 157.192,173.131 157.433,172.375 157.604 C 170.841 157.953,171.006 157.754,170.449 159.917 C 169.738 162.678,169.167 165.142,168.748 167.250 C 168.602 167.983,168.374 169.046,168.241 169.611 C 167.590 172.381,168.134 172.902,172.500 173.683 C 175.102 174.149,177.788 174.061,180.601 173.419 C 180.936 173.343,181.311 173.034,183.000 171.445 C 184.312 170.211,187.484 167.833,187.818 167.833 C 187.903 167.833,187.997 167.771,188.028 167.695 C 188.100 167.515,189.578 166.692,192.100 165.428 C 194.020 164.465,194.361 164.313,195.917 163.720 C 196.283 163.581,196.830 163.361,197.132 163.233 C 198.138 162.804,202.638 161.418,204.583 160.939 C 212.231 159.052,219.767 158.673,226.583 159.834 C 228.379 160.140,230.159 160.431,233.333 160.940 C 234.204 161.080,235.704 161.333,236.667 161.503 C 238.924 161.901,240.981 162.244,243.167 162.586 C 244.129 162.737,245.779 163.000,246.833 163.170 C 248.846 163.495,251.085 163.807,254.833 164.285 C 258.158 164.710,270.546 164.709,274.000 164.284 C 279.274 163.636,284.641 162.639,289.167 161.467 C 289.854 161.289,290.848 161.036,291.375 160.905 C 293.138 160.466,294.408 160.129,295.417 159.833 C 295.967 159.672,296.904 159.409,297.500 159.250 C 298.096 159.091,298.921 158.866,299.333 158.752 C 299.746 158.637,300.646 158.387,301.333 158.195 C 309.262 155.989,317.151 155.850,324.417 157.790 C 326.448 158.332,327.253 158.581,328.333 159.002 C 328.837 159.198,329.438 159.419,329.667 159.493 C 330.107 159.635,333.197 161.049,333.731 161.353 C 333.904 161.451,334.317 161.681,334.648 161.864 C 334.979 162.047,335.962 162.645,336.833 163.193 C 337.704 163.741,338.561 164.278,338.738 164.387 C 338.914 164.495,339.960 165.211,341.062 165.977 C 343.988 168.014,344.076 168.076,344.167 168.167 C 344.212 168.212,344.738 168.585,345.333 168.995 C 345.929 169.405,346.492 169.799,346.583 169.872 C 350.046 172.627,350.857 172.909,355.333 172.909 C 364.318 172.909,366.766 169.283,362.224 162.700 C 361.826 162.123,361.500 161.586,361.500 161.506 C 361.500 161.426,361.444 161.336,361.375 161.306 C 361.306 161.275,360.805 160.650,360.262 159.917 C 359.719 159.183,359.231 158.546,359.179 158.500 C 359.126 158.454,358.597 157.817,358.002 157.083 C 357.408 156.350,356.688 155.487,356.403 155.167 C 355.209 153.823,353.903 152.388,353.507 151.985 C 353.274 151.748,352.768 151.186,352.382 150.735 C 351.191 149.345,351.098 149.251,350.583 148.915 C 348.820 147.765,345.518 146.320,343.000 145.596 C 336.442 143.710,330.852 142.857,319.833 142.060 C 316.612 141.827,312.043 141.754,294.083 141.650 C 282.075 141.580,271.350 141.449,270.250 141.358 C 267.916 141.164,255.704 141.156,252.667 141.347 M307.917 161.601 C 303.830 162.320,303.000 162.690,303.000 163.795 C 303.000 163.883,302.735 164.809,302.411 165.853 C 300.912 170.685,300.856 170.971,301.274 171.695 C 301.986 172.928,306.564 173.518,308.719 172.653 C 309.969 172.152,311.992 171.118,312.198 170.875 C 312.295 170.760,312.437 170.667,312.513 170.667 C 312.674 170.667,314.189 169.611,314.905 169.000 C 316.986 167.224,318.167 166.123,319.792 164.442 C 320.823 163.375,321.667 162.439,321.667 162.363 C 321.667 161.488,311.702 160.936,307.917 161.601 M212.417 164.328 C 207.973 165.090,206.435 165.397,203.980 166.014 C 203.281 166.190,202.522 166.333,202.292 166.333 C 201.464 166.333,201.121 167.412,201.833 167.776 C 202.214 167.970,202.787 168.409,203.727 169.226 C 210.180 174.834,224.171 177.288,226.667 173.250 C 227.266 172.280,227.115 169.230,226.315 166.127 C 225.866 164.383,224.933 164.126,218.833 164.062 C 214.947 164.021,213.971 164.061,212.417 164.328 " stroke="none" fill="#010101" fill-rule="evenodd"></path><path id="path1" d="" stroke="none" fill="#c61c00" fill-rule="evenodd"></path><path id="path2" d="M188.000 58.583 C 188.591 59.179,189.111 59.667,189.157 59.667 C 189.203 59.667,188.757 59.179,188.167 58.583 C 187.576 57.987,187.055 57.500,187.010 57.500 C 186.964 57.500,187.409 57.987,188.000 58.583 M391.906 123.875 L 391.417 124.417 391.958 123.927 C 392.256 123.658,392.500 123.414,392.500 123.385 C 392.500 123.257,392.362 123.370,391.906 123.875 M394.960 131.785 C 395.168 131.824,395.468 131.823,395.627 131.781 C 395.786 131.739,395.617 131.707,395.250 131.709 C 394.883 131.711,394.753 131.745,394.960 131.785 " stroke="none" fill="#bb4311" fill-rule="evenodd"></path><path id="path3" d="M228.000 11.250 C 228.311 11.571,228.603 11.833,228.649 11.833 C 228.695 11.833,228.478 11.571,228.167 11.250 C 227.856 10.929,227.564 10.667,227.518 10.667 C 227.472 10.667,227.689 10.929,228.000 11.250 M24.758 76.321 C 24.720 76.381,24.910 76.448,25.178 76.468 C 25.447 76.489,25.667 76.475,25.667 76.439 C 25.667 76.318,24.827 76.209,24.758 76.321 M306.627 131.118 C 306.834 131.158,307.134 131.156,307.294 131.115 C 307.453 131.073,307.283 131.040,306.917 131.042 C 306.550 131.044,306.420 131.078,306.627 131.118 M279.294 138.285 C 279.501 138.324,279.801 138.323,279.960 138.281 C 280.120 138.239,279.950 138.207,279.583 138.209 C 279.217 138.211,279.086 138.245,279.294 138.285 M289.292 138.284 C 289.498 138.324,289.835 138.324,290.042 138.284 C 290.248 138.245,290.079 138.212,289.667 138.212 C 289.254 138.212,289.085 138.245,289.292 138.284 M290.794 138.285 C 291.001 138.324,291.301 138.323,291.460 138.281 C 291.620 138.239,291.450 138.207,291.083 138.209 C 290.717 138.211,290.586 138.245,290.794 138.285 M306.875 138.282 C 307.035 138.323,307.298 138.323,307.458 138.282 C 307.619 138.240,307.487 138.205,307.167 138.205 C 306.846 138.205,306.715 138.240,306.875 138.282 " stroke="none" fill="#ff0000" fill-rule="evenodd"></path><path id="path4" d="M213.167 6.573 C 210.171 7.493,208.127 8.976,204.667 12.741 C 202.305 15.311,198.423 16.337,194.482 15.434 C 191.073 14.653,186.622 15.258,183.750 16.894 C 180.471 18.760,177.289 23.693,176.907 27.500 C 176.884 27.729,176.771 28.367,176.656 28.917 C 176.390 30.194,176.390 34.256,176.656 35.667 C 176.769 36.262,176.878 36.975,176.900 37.250 C 176.947 37.859,177.455 39.994,177.780 40.945 C 177.910 41.327,178.054 41.843,178.099 42.092 C 178.144 42.341,178.292 42.760,178.428 43.022 C 178.564 43.285,178.634 43.500,178.584 43.500 C 178.534 43.500,178.645 43.797,178.830 44.160 C 179.015 44.523,179.167 44.903,179.167 45.005 C 179.167 45.253,180.735 48.462,181.567 49.917 C 185.068 56.035,190.883 61.944,195.939 64.521 C 196.412 64.762,196.900 65.023,197.024 65.102 C 197.148 65.180,197.287 65.249,197.333 65.254 C 197.379 65.260,197.660 65.394,197.958 65.553 C 198.256 65.712,198.500 65.801,198.500 65.750 C 198.500 65.699,198.714 65.769,198.976 65.904 C 199.579 66.216,201.398 66.848,201.882 66.915 C 202.085 66.942,202.737 67.082,203.333 67.225 C 204.732 67.560,208.223 67.556,209.497 67.217 C 210.003 67.083,210.602 66.937,210.828 66.893 C 211.234 66.815,214.006 65.511,214.167 65.323 C 214.213 65.270,214.362 65.175,214.500 65.114 C 214.637 65.052,214.862 64.936,215.000 64.855 C 215.715 64.435,216.667 63.991,216.667 64.077 C 216.667 64.131,216.882 64.064,217.144 63.928 C 217.407 63.792,217.801 63.646,218.019 63.604 C 218.238 63.561,218.904 63.409,219.500 63.266 C 220.096 63.122,220.888 63.004,221.261 63.002 C 221.634 63.001,222.347 62.874,222.845 62.720 C 223.343 62.566,223.812 62.455,223.887 62.474 C 224.406 62.603,228.207 60.264,229.463 59.042 C 232.278 56.307,235.046 51.559,236.000 47.833 C 237.208 43.113,237.523 40.841,237.526 36.833 C 237.528 32.923,237.127 29.889,236.049 25.667 C 235.686 24.247,235.431 23.496,234.549 21.250 C 234.095 20.092,233.124 18.125,232.425 16.946 C 232.054 16.321,231.675 15.682,231.583 15.528 C 227.527 8.683,219.306 4.686,213.167 6.573 M188.141 21.431 C 189.536 22.263,189.540 23.997,188.149 24.927 C 185.801 26.496,184.826 32.847,186.237 37.375 C 186.373 37.810,186.457 38.167,186.423 38.167 C 186.389 38.167,186.586 38.785,186.860 39.542 C 187.134 40.298,187.418 41.104,187.492 41.333 C 187.719 42.040,188.858 44.356,189.586 45.593 C 190.704 47.490,190.669 48.597,189.468 49.329 C 188.227 50.086,187.392 49.620,186.148 47.477 C 180.824 38.299,180.175 27.584,184.651 22.773 C 185.959 21.367,187.221 20.882,188.141 21.431 M43.865 73.664 C 42.278 73.740,40.814 73.844,40.613 73.894 C 40.412 73.945,39.385 74.064,38.332 74.158 C 37.278 74.253,35.704 74.440,34.833 74.574 C 33.962 74.708,32.425 74.939,31.417 75.088 C 28.284 75.551,25.015 76.174,24.921 76.326 C 24.883 76.388,25.766 76.327,26.884 76.191 C 29.463 75.877,38.201 75.842,41.250 76.134 C 42.442 76.248,43.942 76.380,44.583 76.427 C 48.227 76.694,53.763 77.527,57.750 78.410 C 61.352 79.207,61.503 79.246,64.750 80.255 C 75.738 83.666,82.701 89.062,84.966 95.920 C 86.858 101.648,85.097 103.417,77.500 103.417 C 69.448 103.417,62.624 100.966,57.083 96.086 C 54.394 93.717,50.706 91.096,47.581 89.333 C 46.044 88.466,42.457 86.742,41.667 86.491 C 41.438 86.418,40.837 86.198,40.333 86.002 C 37.757 85.000,34.403 84.080,31.500 83.580 C 23.584 82.215,14.460 82.852,5.917 85.366 C 5.000 85.636,3.987 85.924,3.667 86.007 C 3.346 86.089,2.671 86.316,2.167 86.510 C 1.662 86.704,0.970 86.940,0.627 87.035 C -0.689 87.397,0.364 87.500,5.385 87.500 C 15.476 87.500,22.134 88.654,29.740 91.719 C 31.117 92.274,35.686 94.676,36.180 95.105 C 36.325 95.231,36.491 95.333,36.549 95.333 C 36.634 95.333,39.550 97.332,40.250 97.870 C 42.854 99.870,44.606 101.419,47.170 103.991 C 50.700 107.531,52.980 110.163,56.000 114.187 C 60.469 120.141,63.375 122.021,67.750 121.786 C 69.320 121.703,71.956 121.056,72.408 120.644 C 72.495 120.565,72.661 120.500,72.777 120.500 C 72.893 120.500,73.872 120.080,74.952 119.566 C 81.138 116.625,82.031 116.241,86.000 114.817 C 86.849 114.512,87.325 114.369,89.583 113.738 C 96.278 111.868,102.364 112.221,106.249 114.704 C 117.149 121.670,114.834 137.719,102.250 142.431 C 93.065 145.870,85.030 144.755,74.697 138.607 C 73.751 138.044,72.833 137.502,72.656 137.402 C 72.480 137.302,72.198 137.096,72.030 136.944 C 71.861 136.791,71.675 136.667,71.616 136.667 C 71.557 136.667,70.789 136.179,69.910 135.583 C 69.032 134.987,68.277 134.500,68.233 134.500 C 68.189 134.500,68.062 134.426,67.951 134.336 C 67.072 133.619,66.688 133.333,66.601 133.333 C 66.546 133.333,66.144 133.079,65.709 132.769 C 61.993 130.123,56.595 127.557,52.417 126.451 C 48.219 125.341,46.244 125.083,41.917 125.084 C 36.300 125.084,31.970 125.851,25.583 127.977 C 22.389 129.041,16.835 131.448,16.250 132.024 C 16.056 132.214,16.280 132.134,18.389 131.258 C 26.001 128.098,35.033 128.279,44.167 131.775 C 47.159 132.921,53.113 135.786,53.846 136.434 C 53.991 136.562,54.163 136.667,54.227 136.667 C 54.560 136.667,59.028 139.622,62.750 142.305 C 63.575 142.899,64.606 143.637,65.042 143.943 C 65.477 144.249,66.227 144.777,66.708 145.116 C 67.190 145.455,68.596 146.416,69.833 147.252 C 71.784 148.570,72.450 149.000,73.969 149.920 C 74.124 150.014,74.550 150.282,74.917 150.517 C 77.800 152.363,83.296 154.925,86.417 155.877 C 89.070 156.687,91.143 157.235,92.833 157.572 C 96.994 158.401,98.984 158.738,102.750 159.250 C 103.850 159.399,105.500 159.630,106.417 159.762 C 107.333 159.894,108.946 160.076,110.000 160.166 C 111.054 160.257,112.742 160.416,113.750 160.520 C 116.740 160.829,131.631 160.776,135.083 160.443 C 136.642 160.293,138.442 160.131,139.083 160.083 C 141.974 159.866,150.046 158.765,153.833 158.071 C 154.612 157.928,155.887 157.697,156.667 157.559 C 159.515 157.051,166.413 155.563,169.333 154.827 C 170.021 154.653,171.206 154.362,171.966 154.178 C 172.727 153.995,173.739 153.735,174.216 153.600 C 174.693 153.466,175.571 153.228,176.167 153.072 C 177.753 152.658,178.945 152.330,180.167 151.971 C 180.762 151.795,181.625 151.544,182.083 151.413 C 183.231 151.083,186.772 150.022,187.583 149.763 C 187.950 149.647,188.700 149.417,189.250 149.252 C 189.800 149.087,190.662 148.819,191.167 148.656 C 192.533 148.215,195.240 147.409,196.750 146.995 C 197.483 146.794,198.421 146.534,198.833 146.418 C 199.246 146.302,200.033 146.088,200.583 145.943 C 201.133 145.798,202.146 145.530,202.833 145.348 C 203.521 145.167,204.571 144.903,205.167 144.762 C 205.762 144.621,207.075 144.310,208.083 144.071 C 210.358 143.532,212.396 143.092,214.667 142.650 C 215.629 142.463,217.092 142.171,217.917 142.001 C 218.742 141.832,220.167 141.567,221.083 141.412 C 222.000 141.258,223.537 140.995,224.500 140.829 C 227.211 140.359,232.127 139.683,236.500 139.178 C 240.105 138.762,244.352 138.376,246.667 138.253 C 247.629 138.203,249.429 138.088,250.667 137.998 C 253.862 137.766,269.686 137.788,272.833 138.028 C 274.592 138.163,280.099 138.217,290.083 138.198 C 317.837 138.145,328.415 138.729,338.250 140.858 C 340.859 141.423,345.724 142.757,346.083 143.007 C 346.175 143.071,346.550 143.218,346.917 143.334 C 349.950 144.294,354.446 147.130,356.234 149.211 C 356.646 149.691,357.182 150.308,357.424 150.583 L 357.866 151.083 357.404 150.250 C 356.919 149.378,356.266 148.314,354.845 146.083 C 354.378 145.350,353.903 144.602,353.790 144.420 C 352.572 142.474,348.064 136.036,347.661 135.667 C 347.611 135.621,346.951 134.779,346.194 133.796 C 345.437 132.813,344.728 131.913,344.617 131.796 C 344.506 131.679,343.938 131.021,343.354 130.333 C 340.237 126.663,336.436 122.791,331.984 118.750 C 328.316 115.420,321.761 110.481,317.339 107.714 C 316.282 107.052,315.342 106.449,315.250 106.372 C 315.158 106.296,314.746 106.052,314.333 105.830 C 313.921 105.609,313.471 105.339,313.333 105.231 C 313.196 105.122,312.671 104.811,312.167 104.539 C 311.662 104.267,310.500 103.634,309.583 103.132 C 307.642 102.071,302.865 99.720,301.417 99.114 C 300.867 98.884,299.929 98.477,299.333 98.210 C 298.737 97.942,297.950 97.604,297.583 97.458 C 297.217 97.313,296.271 96.925,295.482 96.597 C 294.693 96.268,293.961 96.000,293.855 96.000 C 293.749 96.000,293.532 95.926,293.373 95.835 C 293.035 95.641,292.592 95.486,288.583 94.157 C 281.632 91.853,276.149 90.460,268.333 89.013 C 264.181 88.244,258.080 87.397,254.500 87.091 C 253.904 87.040,252.217 86.890,250.750 86.758 C 242.628 86.023,225.820 86.052,217.999 86.814 C 217.037 86.908,215.612 87.026,214.833 87.076 C 214.054 87.126,212.404 87.282,211.167 87.422 C 209.929 87.562,207.904 87.791,206.667 87.931 C 203.322 88.310,198.745 88.948,194.667 89.604 C 190.772 90.231,189.985 90.365,188.417 90.668 C 187.500 90.845,185.512 91.222,184.000 91.504 C 182.487 91.787,180.612 92.160,179.833 92.334 C 179.054 92.508,177.817 92.774,177.083 92.924 C 176.350 93.074,175.188 93.332,174.500 93.499 C 173.813 93.665,172.688 93.926,172.000 94.079 C 170.072 94.508,168.700 94.829,167.333 95.170 C 166.182 95.458,165.588 95.591,162.500 96.250 C 158.361 97.133,153.818 97.933,151.167 98.244 C 150.754 98.292,149.592 98.441,148.583 98.574 C 130.253 100.990,114.745 98.085,98.667 89.221 C 98.254 88.994,97.354 88.507,96.667 88.139 C 95.979 87.771,95.175 87.329,94.879 87.158 C 94.584 86.986,93.886 86.599,93.328 86.297 C 92.771 85.996,92.187 85.675,92.031 85.583 C 91.682 85.378,89.922 84.396,88.592 83.665 C 86.218 82.359,79.977 79.333,79.660 79.333 C 79.577 79.333,79.264 79.196,78.963 79.029 C 78.663 78.861,78.267 78.680,78.083 78.626 C 77.900 78.572,77.337 78.367,76.833 78.169 C 75.630 77.698,74.207 77.184,73.583 76.997 C 73.308 76.915,72.708 76.734,72.250 76.596 C 63.849 74.068,54.841 73.138,43.865 73.664 M243.423 99.090 C 246.441 99.871,247.081 102.656,245.737 109.160 C 245.457 110.518,245.420 110.499,246.957 109.796 C 248.642 109.026,248.714 109.001,250.083 108.731 C 252.654 108.223,255.542 108.605,257.651 109.732 C 262.265 112.197,263.212 119.363,259.500 123.715 C 258.657 124.704,258.360 124.981,257.363 125.715 C 256.421 126.408,256.046 126.612,254.283 127.390 C 250.932 128.868,241.562 128.595,237.250 126.893 C 236.578 126.628,235.128 125.985,235.031 125.908 C 235.002 125.885,235.292 124.940,235.676 123.808 C 236.059 122.676,236.432 121.525,236.503 121.250 C 237.261 118.337,237.666 116.703,237.910 115.583 C 238.070 114.850,238.275 113.912,238.365 113.500 C 239.827 106.808,239.830 102.244,238.374 101.052 C 237.982 100.732,239.415 99.450,240.532 99.121 C 241.679 98.783,242.213 98.777,243.423 99.090 M227.083 99.228 C 232.516 100.405,234.041 106.489,229.621 109.349 C 228.488 110.082,226.671 110.370,225.462 110.008 L 224.793 109.808 225.295 109.279 C 227.831 106.608,226.058 102.729,222.701 103.603 C 219.604 104.410,218.279 106.978,218.581 111.583 C 219.136 120.036,224.988 124.953,230.569 121.654 L 231.221 121.268 231.119 122.594 C 230.837 126.244,227.771 128.707,223.500 128.715 C 218.540 128.723,214.929 124.964,213.487 118.292 C 213.249 117.187,213.093 117.128,212.386 117.875 C 210.666 119.691,210.241 121.170,210.291 125.167 C 210.336 128.838,210.203 129.508,209.193 130.688 C 207.546 132.612,204.241 132.871,202.109 131.244 L 201.327 130.647 201.881 129.948 C 203.482 127.930,204.107 123.873,203.415 119.993 C 203.261 119.126,203.094 118.098,203.045 117.708 C 202.966 117.075,202.669 116.685,202.665 117.208 C 202.657 118.213,200.854 120.522,199.471 121.298 C 198.841 121.652,198.651 121.858,198.594 122.250 C 197.429 130.319,195.308 133.517,189.914 135.340 C 188.041 135.973,184.696 135.933,183.017 135.257 C 176.721 132.722,178.191 123.830,184.917 123.766 C 186.693 123.749,186.980 123.845,188.036 124.806 L 188.488 125.218 187.659 125.602 C 184.581 127.028,184.643 130.942,187.750 131.292 C 190.017 131.548,191.517 129.819,192.413 125.917 C 193.275 122.165,191.871 115.038,189.878 113.045 C 187.852 111.019,184.494 111.372,182.272 113.845 C 181.366 114.852,181.432 114.857,181.169 113.758 C 179.799 108.051,189.400 103.259,194.583 107.063 C 196.662 108.590,197.849 111.162,198.473 115.494 L 198.767 117.540 199.790 116.423 C 201.591 114.458,201.887 113.500,202.004 109.250 C 202.137 104.431,202.749 103.348,205.861 102.424 C 207.273 102.004,210.500 102.351,210.500 102.923 C 210.500 102.959,210.231 103.477,209.903 104.074 C 208.508 106.613,208.078 112.446,208.976 116.667 L 209.100 117.250 209.669 116.184 C 210.268 115.064,211.453 113.743,212.319 113.232 C 212.818 112.937,212.833 112.892,212.833 111.726 C 212.833 106.249,215.522 101.464,219.260 100.287 C 219.438 100.231,220.033 100.025,220.583 99.829 C 222.627 99.100,225.336 98.850,227.083 99.228 M273.495 100.807 C 273.905 101.055,274.467 101.581,274.745 101.977 C 275.638 103.247,275.510 104.744,273.997 110.750 C 272.011 118.629,271.768 123.364,273.280 124.707 C 273.649 125.035,275.238 125.386,275.697 125.240 C 276.065 125.123,276.066 125.133,275.734 125.938 C 274.556 128.795,271.484 130.142,268.354 129.173 C 264.844 128.087,264.208 124.975,265.848 116.917 C 266.411 114.147,266.615 113.218,267.417 109.763 C 268.301 105.956,268.139 103.513,266.983 103.211 C 265.856 102.916,268.097 100.635,269.816 100.328 C 271.113 100.096,272.653 100.297,273.495 100.807 M292.863 103.550 C 295.058 104.401,295.747 105.423,295.749 107.833 C 295.750 109.963,295.598 110.447,293.712 114.298 C 293.205 115.333,292.830 116.219,292.879 116.268 C 293.140 116.529,294.899 115.138,297.000 113.008 C 299.931 110.037,301.408 109.308,304.500 109.307 C 308.870 109.305,311.577 111.237,312.075 114.713 C 312.655 118.770,307.780 121.003,304.500 118.182 C 304.103 117.841,304.003 117.678,304.187 117.673 C 306.059 117.627,307.884 115.255,307.037 113.971 C 305.581 111.763,303.388 112.238,300.288 115.434 C 299.300 116.452,298.231 117.425,297.913 117.597 C 297.254 117.952,297.195 118.100,297.654 118.246 C 298.791 118.607,300.161 121.286,300.169 123.166 C 300.190 127.860,302.907 131.000,306.946 131.000 C 307.709 131.000,308.333 131.028,308.333 131.063 C 308.333 131.297,307.774 132.372,307.325 133.000 C 304.057 137.575,296.301 136.344,293.987 130.883 L 293.437 129.583 293.426 125.250 C 293.413 119.959,293.235 119.273,292.033 119.902 C 289.499 121.230,286.738 128.137,287.547 131.125 L 287.785 132.000 286.851 131.994 C 284.145 131.977,281.419 130.514,280.721 128.705 C 279.993 126.819,280.400 124.878,282.356 120.917 C 283.436 118.728,283.901 117.847,285.386 115.167 C 288.880 108.861,289.074 106.333,286.063 106.333 C 284.985 106.333,286.191 104.397,287.820 103.513 C 288.720 103.025,291.560 103.046,292.863 103.550 M167.656 112.503 C 172.103 113.913,174.360 116.816,175.346 122.395 C 176.546 129.182,173.524 136.626,168.380 139.553 C 160.101 144.265,151.186 142.507,148.253 135.583 C 146.750 132.036,146.434 125.636,147.651 123.363 C 147.751 123.176,147.833 122.897,147.833 122.744 C 147.833 121.932,149.813 118.597,151.188 117.092 C 154.808 113.131,162.700 110.932,167.656 112.503 M248.250 113.400 C 248.158 113.433,247.746 113.557,247.333 113.676 C 245.368 114.245,244.956 114.652,244.584 116.394 C 244.282 117.809,243.672 120.158,243.237 121.583 C 242.727 123.252,242.628 123.077,244.308 123.476 C 250.489 124.945,255.954 120.639,254.054 115.795 C 253.387 114.094,250.101 112.738,248.250 113.400 M136.167 115.316 C 139.290 115.990,140.912 116.741,142.153 118.088 C 145.380 121.589,143.005 127.422,137.708 129.007 C 136.944 129.236,136.768 129.498,137.375 129.503 C 145.326 129.563,146.772 140.185,139.500 145.114 C 134.107 148.768,121.717 149.047,113.958 145.688 C 113.075 145.305,113.010 145.105,113.473 144.189 C 114.554 142.052,116.408 137.116,117.080 134.584 C 117.854 131.673,118.170 130.403,118.470 129.000 C 119.788 122.829,119.763 118.123,118.407 117.603 C 117.190 117.136,121.940 115.346,125.500 114.931 C 127.304 114.721,134.635 114.985,136.167 115.316 M160.083 116.576 C 158.112 117.062,156.402 118.484,155.547 120.347 C 154.798 121.979,154.669 122.379,154.407 123.867 C 153.251 130.444,155.506 136.553,159.376 137.331 C 165.358 138.534,169.464 132.054,168.088 123.583 C 167.158 117.858,164.461 115.496,160.083 116.576 M128.833 118.945 C 128.604 118.975,128.023 119.081,127.542 119.179 L 126.667 119.357 126.667 120.963 C 126.667 122.539,126.408 124.635,125.893 127.220 C 125.578 128.805,125.534 128.759,127.307 128.713 C 131.068 128.616,133.571 127.865,135.224 126.337 C 137.346 124.378,137.439 121.393,135.422 120.054 C 134.232 119.264,130.784 118.683,128.833 118.945 M394.500 122.345 C 392.512 122.722,390.667 125.005,390.667 127.087 C 390.667 129.646,392.943 131.800,395.441 131.607 C 397.131 131.476,397.429 131.418,397.859 131.136 C 402.151 128.319,399.505 121.396,394.500 122.345 M126.133 132.709 L 124.849 132.871 124.658 133.811 C 124.553 134.327,124.332 135.162,124.167 135.667 C 124.002 136.171,123.598 137.408,123.270 138.417 C 122.942 139.425,122.485 140.758,122.255 141.380 L 121.836 142.509 122.209 142.649 C 127.400 144.590,134.764 142.627,136.146 138.934 C 137.871 134.322,133.734 131.749,126.133 132.709 " stroke="none" fill="#ff501c" fill-rule="evenodd"></path></g></svg>