<?xml version="1.0" encoding="iso-8859-1"?>
<!-- Generator: Adobe Illustrator 18.0.0, SVG Export Plug-In . SVG Version: 6.00 Build 0)  -->
<!DOCTYPE svg PUBLIC "-//W3C//DTD SVG 1.1//EN" "http://www.w3.org/Graphics/SVG/1.1/DTD/svg11.dtd">
<svg version="1.1" id="Capa_1" xmlns="http://www.w3.org/2000/svg" xmlns:xlink="http://www.w3.org/1999/xlink" x="0px" y="0px"
	 viewBox="0 0 59 59" style="enable-background:new 0 0 59 59;" xml:space="preserve">
<g>
	<path d="M52.417,14.576l-0.95-0.783L34.094,28.424l-0.984,0.828l0.001,0.001l-0.004,0.003l0.85,0.756l14.966,13.412l0.066-0.056
		l2.765,2.457l0.662-0.563C56.601,41.708,59,36.115,59,29.919S56.601,18.13,52.417,14.576z M44,33.5c0-2.206,1.794-4,4-4
		s4,1.794,4,4s-1.794,4-4,4S44,35.706,44,33.5z M51,25.5c-1.103,0-2,0.897-2,2c0,0.553-0.448,1-1,1s-1-0.447-1-1
		c0-2.206,1.794-4,4-4c0.552,0,1,0.447,1,1S51.552,25.5,51,25.5z M48,22.5c0,2.206-1.794,4-4,4c-1.144,0-2.207-0.496-2.953-1.316
		l6.101-5.138C47.69,20.739,48,21.595,48,22.5z M51.765,43.158l-1.297-1.152C53.316,39.078,55,34.667,55,29.92
		c0-4.922-1.812-9.479-4.853-12.4l1.323-1.114C54.99,19.591,57,24.487,57,29.919C57,35.197,55.103,39.97,51.765,43.158z"/>
	<path d="M30.414,29.5l10.793-10.793l6.178-6.178l2.828-2.828l-0.707-0.707C44.029,3.517,36.746,0.5,29,0.5
		S13.971,3.517,8.494,8.994C3.017,14.472,0,21.754,0,29.5s3.017,15.028,8.494,20.506C13.971,55.483,21.254,58.5,29,58.5
		s15.029-3.017,20.506-8.494l0.707-0.707l-2.828-2.828L30.414,29.5z M24.566,45.724c-0.45-0.319-0.556-0.944-0.236-1.395
		c0.32-0.449,0.944-0.557,1.395-0.236c1.798,1.277,2.223,3.779,0.946,5.578c-0.195,0.274-0.503,0.421-0.816,0.421
		c-0.2,0-0.402-0.06-0.578-0.185c-0.451-0.319-0.557-0.943-0.237-1.395C25.678,47.613,25.465,46.362,24.566,45.724z M16,21.5
		c-2.206,0-4-1.794-4-4s1.794-4,4-4s4,1.794,4,4S18.206,21.5,16,21.5z M20,22.5c0,0.553-0.448,1-1,1c-1.103,0-2,0.897-2,2
		c0,0.553-0.448,1-1,1s-1-0.447-1-1c0-2.206,1.794-4,4-4C19.552,21.5,20,21.947,20,22.5z M16,30.5c0,2.206-1.794,4-4,4s-4-1.794-4-4
		s1.794-4,4-4S16,28.294,16,30.5z M19,37.5c2.206,0,4,1.794,4,4s-1.794,4-4,4s-4-1.794-4-4S16.794,37.5,19,37.5z M22.996,32.868
		c-1.077,0.616-2.454,0.24-3.07-0.837c-0.043-0.075-0.106-0.105-0.151-0.118c-0.045-0.012-0.115-0.019-0.19,0.024
		c-0.48,0.277-1.09,0.108-1.364-0.372c-0.274-0.479-0.107-1.091,0.372-1.364c0.522-0.299,1.128-0.376,1.708-0.218
		s1.063,0.533,1.362,1.056c0.068,0.118,0.221,0.161,0.341,0.093c1.076-0.618,2.454-0.24,3.07,0.837
		c0.043,0.075,0.106,0.105,0.151,0.118s0.116,0.019,0.19-0.024c0.482-0.274,1.091-0.107,1.364,0.372
		c0.274,0.479,0.107,1.091-0.372,1.364c-0.345,0.197-0.727,0.298-1.113,0.298c-0.199,0-0.398-0.026-0.595-0.08
		c-0.58-0.158-1.063-0.533-1.362-1.056C23.268,32.842,23.116,32.798,22.996,32.868z M28,16.5c-2.206,0-4-1.794-4-4s1.794-4,4-4
		s4,1.794,4,4S30.206,16.5,28,16.5z M25.25,23.25c0.138,0,0.25-0.112,0.25-0.25c0-1.24,1.009-2.25,2.25-2.25
		c0.138,0,0.25-0.112,0.25-0.25c0-0.553,0.448-1,1-1s1,0.447,1,1c0,1.24-1.009,2.25-2.25,2.25c-0.138,0-0.25,0.112-0.25,0.25
		c0,1.24-1.009,2.25-2.25,2.25c-0.138,0-0.25,0.112-0.25,0.25c0,0.553-0.448,1-1,1s-1-0.447-1-1C23,24.26,24.009,23.25,25.25,23.25z
		 M26.724,40.349c-0.083-0.017-0.148,0.009-0.188,0.035c-0.04,0.025-0.09,0.074-0.108,0.158c-0.099,0.471-0.515,0.794-0.978,0.794
		c-0.068,0-0.137-0.007-0.207-0.021c-0.541-0.113-0.887-0.644-0.773-1.185c0.124-0.588,0.469-1.093,0.972-1.421
		c0.503-0.328,1.105-0.444,1.693-0.317c0.086,0.02,0.149-0.009,0.188-0.035c0.04-0.025,0.09-0.074,0.108-0.158
		c0.124-0.588,0.469-1.093,0.973-1.421c0.502-0.329,1.104-0.442,1.693-0.316c0.13,0.029,0.267-0.06,0.296-0.193
		c0.114-0.541,0.644-0.885,1.185-0.772c0.54,0.114,0.886,0.645,0.772,1.185c-0.255,1.214-1.452,1.989-2.665,1.738
		c-0.084-0.016-0.149,0.009-0.189,0.035c-0.039,0.025-0.09,0.073-0.107,0.157c-0.124,0.589-0.469,1.094-0.973,1.422
		C27.914,40.361,27.31,40.474,26.724,40.349z M33,40.5c2.206,0,4,1.794,4,4s-1.794,4-4,4s-4-1.794-4-4S30.794,40.5,33,40.5z
		 M36.981,20.104C36.358,19.39,36,18.478,36,17.5c0-2.206,1.794-4,4-4c0.978,0,1.89,0.358,2.605,0.981L36.981,20.104z M29,56.5
		c-7.212,0-13.992-2.809-19.092-7.908S2,36.712,2,29.5s2.809-13.992,7.908-19.092S21.788,2.5,29,2.5
		c6.878,0,13.363,2.554,18.372,7.214l-1.419,1.418C41.323,6.851,35.343,4.5,29,4.5c-6.678,0-12.956,2.601-17.678,7.322
		c-9.747,9.747-9.747,25.608,0,35.355c4.722,4.722,11,7.322,17.678,7.322c6.343,0,12.323-2.351,16.953-6.632l1.419,1.418
		C42.363,53.946,35.878,56.5,29,56.5z"/>
</g>
<g>
</g>
<g>
</g>
<g>
</g>
<g>
</g>
<g>
</g>
<g>
</g>
<g>
</g>
<g>
</g>
<g>
</g>
<g>
</g>
<g>
</g>
<g>
</g>
<g>
</g>
<g>
</g>
<g>
</g>
</svg>
