<?xml version="1.0" encoding="iso-8859-1"?>
<!-- Generator: Adobe Illustrator 18.0.0, SVG Export Plug-In . SVG Version: 6.00 Build 0)  -->
<!DOCTYPE svg PUBLIC "-//W3C//DTD SVG 1.1//EN" "http://www.w3.org/Graphics/SVG/1.1/DTD/svg11.dtd">
<svg version="1.1" id="Capa_1" xmlns="http://www.w3.org/2000/svg" xmlns:xlink="http://www.w3.org/1999/xlink" x="0px" y="0px"
	 viewBox="0 0 60 60" style="enable-background:new 0 0 60 60;" xml:space="preserve">
<g>
	<path d="M37.5,20.997c-0.952,0-1.893,0.141-2.794,0.418c-0.528,0.163-0.824,0.723-0.662,1.25c0.133,0.43,0.528,0.706,0.956,0.706
		c0.097,0,0.196-0.014,0.294-0.044c0.711-0.219,1.453-0.33,2.206-0.33c0.553,0,1-0.447,1-1S38.053,20.997,37.5,20.997z"/>
	<path d="M31.379,23.232C29.231,25.043,28,27.69,28,30.497c0,0.553,0.447,1,1,1s1-0.447,1-1c0-2.216,0.973-4.306,2.668-5.735
		c0.422-0.356,0.476-0.987,0.12-1.409C32.432,22.931,31.802,22.876,31.379,23.232z"/>
	<path d="M58.109,31.172C59.347,29.398,60,27.348,60,25.244c0-4.622-3.157-8.908-8.043-10.918c-1.803-0.742-3.192-2.176-3.716-3.835
		c-1.334-4.23-4.368-6.635-9.276-7.353C34.945,2.55,31.011,3.914,28.96,6.59c-0.811,1.056-2.723,1.509-4.579,1.055
		c-1.478-0.36-3.016-0.551-4.572-0.564l-0.165-0.001c-6.896,0-12.61,3.711-13.589,8.822c-0.342,1.784-0.132,3.566,0.626,5.298
		c0.896,2.05,0.082,4.261-2.181,5.913C1.599,29.231,0,32.036,0,35.01c0,3.946,5.721,6.755,10.52,8.416
		c2.957,1.022,4.901,2.995,5.333,5.395l0.025,0.139c0.921,4.732,5.828,8.038,11.935,8.038c0.203,0,0.407-0.004,0.613-0.012
		c4.588-0.168,8.983-2.109,11.76-5.192c0.834-0.926,2.235-1.469,3.438-1.302c2.071,0.296,4.236,0.132,6.33-0.481
		c4.896-1.433,8.63-5.349,9.293-9.745c0.341-2.252-0.086-4.458-1.234-6.379C57.501,33.03,57.538,31.99,58.109,31.172z
		 M19.458,11.002c1.551-0.149,2.636-0.001,2.682,0.005c0.547,0.077,0.928,0.583,0.851,1.13c-0.07,0.5-0.499,0.86-0.989,0.86
		c-0.046,0-0.092-0.003-0.139-0.01c-0.021-0.002-0.922-0.118-2.211,0.005c-0.557,0.052-1.039-0.349-1.092-0.898
		C18.506,11.544,18.908,11.055,19.458,11.002z M11.837,17.544c-0.191,0.294-0.512,0.453-0.838,0.453
		c-0.188,0-0.377-0.053-0.546-0.163c-0.462-0.302-0.593-0.921-0.29-1.384c1.279-1.96,2.998-3.429,5.107-4.368
		c0.506-0.223,1.096,0.004,1.32,0.508c0.224,0.504-0.003,1.096-0.508,1.32C14.331,14.689,12.902,15.912,11.837,17.544z
		 M18.106,44.519c-0.722-1.179-1.619-1.749-1.628-1.755c-0.472-0.288-0.62-0.903-0.331-1.374c0.288-0.471,0.905-0.623,1.374-0.331
		c0.054,0.032,1.309,0.812,2.29,2.415c0.289,0.472,0.141,1.087-0.33,1.375c-0.163,0.1-0.344,0.147-0.521,0.147
		C18.623,44.997,18.295,44.827,18.106,44.519z M26.124,51.904l-0.163,0.019c-0.242,0.027-0.483,0.04-0.722,0.04
		c-3.095,0-5.8-2.218-6.334-5.312c-0.094-0.544,0.271-1.062,0.815-1.155c0.543-0.09,1.062,0.271,1.155,0.815
		c0.396,2.291,2.521,3.88,4.851,3.625l0.149-0.017c0.554-0.068,1.048,0.32,1.116,0.868S26.672,51.836,26.124,51.904z M37.5,43.997
		c-7.444,0-13.5-6.056-13.5-13.5s6.056-13.5,13.5-13.5S51,23.053,51,30.497S44.944,43.997,37.5,43.997z"/>
</g>
<g>
</g>
<g>
</g>
<g>
</g>
<g>
</g>
<g>
</g>
<g>
</g>
<g>
</g>
<g>
</g>
<g>
</g>
<g>
</g>
<g>
</g>
<g>
</g>
<g>
</g>
<g>
</g>
<g>
</g>
</svg>
