<?xml version="1.0" encoding="iso-8859-1"?>
<!-- Generator: Adobe Illustrator 19.0.0, SVG Export Plug-In . SVG Version: 6.00 Build 0)  -->
<svg version="1.1" id="Capa_1" xmlns="http://www.w3.org/2000/svg" xmlns:xlink="http://www.w3.org/1999/xlink" x="0px" y="0px"
	 viewBox="0 0 59.706 59.706" style="enable-background:new 0 0 59.706 59.706;" xml:space="preserve">
<g>
	<path d="M41.63,5.999l2,2l-1.414,1.414l-2-2L41.63,5.999z M44.217,7.415l-2-2l1.414-1.414l2,2L44.217,7.415z M46.217,5.415l-2-2
		l1.414-1.414l2,2L46.217,5.415z M46.216,1.414L47.631,0l2,2l-1.414,1.414L46.216,1.414z"/>
	<path d="M42.666,16.934c0.042-1.066-0.197-2.116-0.71-3.086c-0.387-0.729-0.823-1.42-1.3-2.075l1.182-2.66L40.01,8.3l-0.781,1.758
		c-3.163-3.32-7.578-5.264-12.304-5.264c-6.313,0-12.073,3.469-15.032,9.053c-0.513,0.97-0.753,2.02-0.71,3.086
		c-0.265,0.108-0.505,0.273-0.693,0.498c-0.338,0.405-0.479,0.935-0.386,1.443l6.277,36.893c0.41,2.283,2.392,3.939,4.71,3.939
		h11.668c2.318,0,4.3-1.656,4.711-3.948l6.275-36.874c0.094-0.519-0.047-1.048-0.385-1.453
		C43.171,17.207,42.931,17.042,42.666,16.934z M40.188,14.783c0.335,0.633,0.497,1.317,0.48,2.012h-1.772h-0.473l1.274-2.866
		C39.869,14.207,40.034,14.491,40.188,14.783z M13.659,14.783c2.61-4.927,7.693-7.988,13.265-7.988
		c4.457,0,8.597,1.963,11.413,5.269l-2.103,4.731H13.179C13.162,16.101,13.324,15.417,13.659,14.783z M14.637,23.325l2.192-2.048
		c1.158-1.083,3.157-1.017,4.24,0.144l2.048,2.192c0.546,0.584,0.831,1.348,0.804,2.149c-0.026,0.803-0.363,1.546-0.947,2.091
		l-2.192,2.048c-0.556,0.52-1.283,0.806-2.048,0.806c-0.829,0-1.629-0.346-2.192-0.949l-2.048-2.192
		C13.364,26.356,13.429,24.454,14.637,23.325z M19.924,49.472c-0.552,0-1-0.448-1-1s0.448-1,1-1s1,0.448,1,1
		S20.476,49.472,19.924,49.472z M20.734,43.472c-0.829,0-1.629-0.346-2.192-0.949l-2.048-2.192
		c-0.546-0.584-0.831-1.348-0.804-2.149c0.026-0.803,0.363-1.546,0.947-2.091l2.192-2.048c1.158-1.083,3.157-1.017,4.24,0.144
		l2.048,2.192c1.13,1.209,1.065,3.111-0.144,4.24l-2.192,2.048C22.226,43.186,21.499,43.472,20.734,43.472z M35.924,46.379
		c-0.552,0-1-0.448-1-1s0.448-1,1-1s1,0.448,1,1S36.476,46.379,35.924,46.379z M33.924,34.379c0-0.552,0.448-1,1-1s1,0.448,1,1
		s-0.448,1-1,1S33.924,34.931,33.924,34.379z M31.874,35.132c0.021,0.081-0.139,0.886-0.408,1.065L26.884,48.16l0.946-0.883
		c1.158-1.082,3.157-1.017,4.24,0.144l2.048,2.192c0.546,0.584,0.831,1.348,0.804,2.149c-0.026,0.803-0.363,1.546-0.947,2.091
		l-2.192,2.048c-0.556,0.52-1.283,0.806-2.048,0.806c-0.829,0-1.629-0.346-2.192-0.949l-2.048-2.192
		c-0.18-0.193-0.319-0.407-0.439-0.629l-1.198,3.128l-1.681-0.644c-0.083,0.022,0.249-1.842,0.428-1.674l4.331-11.31
		c-0.001-0.02,0.108-0.594,0.297-0.776l3.168-8.271l-1.618,1.511c-0.556,0.52-1.283,0.806-2.048,0.806
		c-0.829,0-1.629-0.346-2.192-0.949l-2.048-2.192c-1.13-1.209-1.065-3.111,0.144-4.24l2.192-2.048
		c1.158-1.083,3.158-1.017,4.24,0.144l2.048,2.192c0.316,0.338,0.532,0.739,0.664,1.169l4.208-10.988h2.141L31.874,35.132z
		 M33.924,40.379c0,0.552-0.448,1-1,1s-1-0.448-1-1s0.448-1,1-1S33.924,39.827,33.924,40.379z"/>
</g>
<g>
</g>
<g>
</g>
<g>
</g>
<g>
</g>
<g>
</g>
<g>
</g>
<g>
</g>
<g>
</g>
<g>
</g>
<g>
</g>
<g>
</g>
<g>
</g>
<g>
</g>
<g>
</g>
<g>
</g>
</svg>
