<?xml version="1.0" encoding="iso-8859-1"?>
<!-- Generator: Adobe Illustrator 18.0.0, SVG Export Plug-In . SVG Version: 6.00 Build 0)  -->
<!DOCTYPE svg PUBLIC "-//W3C//DTD SVG 1.1//EN" "http://www.w3.org/Graphics/SVG/1.1/DTD/svg11.dtd">
<svg version="1.1" id="Capa_1" xmlns="http://www.w3.org/2000/svg" xmlns:xlink="http://www.w3.org/1999/xlink" x="0px" y="0px"
	 viewBox="0 0 60 60" style="enable-background:new 0 0 60 60;" xml:space="preserve">
<g>
	<polygon points="26,13 28,13 28,17 31,17 31,13 33,13 33,17 37,17 37,13 37,11.799 36.665,11 32.05,0 27.95,0 23.335,11 23,11.799 
		23,13 23,17 26,17 	"/>
	<path d="M41.379,11H39v6h5v-3.379C44,12.176,42.824,11,41.379,11z"/>
	<path d="M21,11h-2.379C17.176,11,16,12.176,16,13.621V17h5V11z"/>
	<path d="M16,19v37.869C16,58.596,17.404,60,19.131,60h21.738C42.596,60,44,58.596,44,56.869V19H16z M30,48c-6.065,0-11-4.935-11-11
		s4.935-11,11-11s11,4.935,11,11S36.065,48,30,48z"/>
</g>
<g>
</g>
<g>
</g>
<g>
</g>
<g>
</g>
<g>
</g>
<g>
</g>
<g>
</g>
<g>
</g>
<g>
</g>
<g>
</g>
<g>
</g>
<g>
</g>
<g>
</g>
<g>
</g>
<g>
</g>
</svg>
